<svg width="1800" height="500" viewBox="0 0 1800 500" fill="none" xmlns="http://www.w3.org/2000/svg">
<rect width="1800" height="500" fill="black"/>
<path d="M424.987 307V192.091H470.322C479.038 192.091 486.463 193.755 492.597 197.085C498.732 200.376 503.407 204.958 506.624 210.831C509.879 216.666 511.506 223.399 511.506 231.03C511.506 238.661 509.86 245.393 506.568 251.229C503.277 257.064 498.507 261.609 492.261 264.863C486.051 268.117 478.533 269.744 469.705 269.744H440.81V250.275H465.778C470.453 250.275 474.306 249.471 477.336 247.862C480.403 246.216 482.685 243.953 484.181 241.073C485.715 238.156 486.482 234.808 486.482 231.03C486.482 227.214 485.715 223.885 484.181 221.043C482.685 218.162 480.403 215.937 477.336 214.366C474.269 212.757 470.379 211.953 465.665 211.953H449.282V307H424.987ZM550.678 308.627C545.179 308.627 540.279 307.673 535.978 305.766C531.676 303.821 528.272 300.959 525.766 297.181C523.297 293.366 522.063 288.615 522.063 282.93C522.063 278.142 522.942 274.121 524.7 270.866C526.458 267.612 528.852 264.994 531.882 263.011C534.912 261.029 538.353 259.533 542.206 258.523C546.096 257.513 550.173 256.802 554.437 256.391C559.45 255.867 563.489 255.381 566.557 254.932C569.624 254.446 571.849 253.735 573.233 252.8C574.617 251.865 575.309 250.481 575.309 248.648V248.311C575.309 244.758 574.187 242.008 571.943 240.063C569.736 238.118 566.594 237.146 562.517 237.146C558.215 237.146 554.793 238.099 552.249 240.007C549.705 241.877 548.022 244.234 547.199 247.077L525.093 245.281C526.215 240.045 528.422 235.518 531.714 231.703C535.005 227.85 539.251 224.895 544.45 222.838C549.687 220.743 555.746 219.696 562.629 219.696C567.417 219.696 571.999 220.257 576.375 221.379C580.789 222.501 584.698 224.241 588.102 226.597C591.543 228.954 594.255 231.984 596.238 235.687C598.22 239.353 599.211 243.748 599.211 248.872V307H576.544V295.049H575.87C574.486 297.742 572.635 300.117 570.316 302.175C567.997 304.195 565.21 305.784 561.956 306.944C558.701 308.066 554.942 308.627 550.678 308.627ZM557.523 292.131C561.039 292.131 564.144 291.439 566.837 290.055C569.53 288.634 571.644 286.726 573.177 284.332C574.711 281.938 575.478 279.227 575.478 276.197V267.051C574.73 267.537 573.701 267.986 572.392 268.398C571.12 268.772 569.68 269.127 568.071 269.464C566.463 269.763 564.855 270.044 563.246 270.305C561.638 270.53 560.179 270.736 558.87 270.923C556.064 271.334 553.614 271.989 551.52 272.886C549.425 273.784 547.798 275 546.638 276.533C545.479 278.03 544.899 279.9 544.899 282.144C544.899 285.398 546.077 287.886 548.434 289.607C550.828 291.29 553.857 292.131 557.523 292.131ZM619.335 339.318V220.818H642.9V235.294H643.966C645.014 232.975 646.529 230.618 648.511 228.224C650.531 225.793 653.149 223.773 656.366 222.165C659.621 220.519 663.66 219.696 668.486 219.696C674.77 219.696 680.568 221.342 685.879 224.634C691.191 227.888 695.436 232.807 698.616 239.39C701.795 245.936 703.385 254.146 703.385 264.021C703.385 273.634 701.832 281.751 698.728 288.372C695.661 294.955 691.471 299.949 686.16 303.353C680.886 306.719 674.975 308.403 668.43 308.403C663.791 308.403 659.845 307.636 656.591 306.102C653.374 304.569 650.737 302.642 648.68 300.323C646.622 297.967 645.051 295.591 643.966 293.197H643.237V339.318H619.335ZM642.732 263.909C642.732 269.034 643.443 273.504 644.864 277.319C646.286 281.134 648.343 284.108 651.036 286.24C653.729 288.335 657.002 289.382 660.855 289.382C664.745 289.382 668.037 288.316 670.73 286.184C673.423 284.014 675.462 281.022 676.846 277.207C678.267 273.354 678.978 268.921 678.978 263.909C678.978 258.934 678.286 254.558 676.902 250.78C675.518 247.002 673.479 244.047 670.786 241.915C668.093 239.783 664.783 238.717 660.855 238.717C656.965 238.717 653.673 239.745 650.98 241.803C648.324 243.86 646.286 246.777 644.864 250.555C643.443 254.333 642.732 258.785 642.732 263.909ZM760.175 308.683C751.31 308.683 743.679 306.888 737.283 303.297C730.924 299.669 726.024 294.544 722.583 287.923C719.141 281.265 717.421 273.391 717.421 264.302C717.421 255.437 719.141 247.656 722.583 240.961C726.024 234.265 730.868 229.047 737.115 225.307C743.399 221.566 750.768 219.696 759.221 219.696C764.907 219.696 770.2 220.612 775.1 222.445C780.037 224.241 784.339 226.953 788.005 230.581C791.708 234.209 794.588 238.773 796.645 244.271C798.702 249.732 799.731 256.129 799.731 263.46V270.025H726.959V255.212H777.232C777.232 251.771 776.484 248.723 774.988 246.067C773.491 243.411 771.415 241.335 768.76 239.839C766.141 238.305 763.093 237.538 759.614 237.538C755.986 237.538 752.769 238.38 749.963 240.063C747.195 241.709 745.026 243.935 743.455 246.74C741.884 249.508 741.08 252.594 741.042 255.998V270.081C741.042 274.345 741.828 278.03 743.399 281.134C745.007 284.239 747.27 286.633 750.188 288.316C753.105 289.999 756.565 290.841 760.568 290.841C763.224 290.841 765.655 290.467 767.862 289.719C770.069 288.971 771.958 287.848 773.529 286.352C775.1 284.856 776.297 283.023 777.12 280.854L799.226 282.312C798.104 287.624 795.804 292.262 792.325 296.227C788.884 300.155 784.432 303.222 778.971 305.429C773.547 307.598 767.282 308.683 760.175 308.683ZM816.909 307V220.818H840.082V235.855H840.979C842.55 230.506 845.188 226.466 848.891 223.736C852.594 220.968 856.858 219.584 861.683 219.584C862.88 219.584 864.171 219.659 865.555 219.808C866.939 219.958 868.154 220.164 869.202 220.425V241.634C868.08 241.298 866.527 240.998 864.545 240.737C862.562 240.475 860.748 240.344 859.102 240.344C855.586 240.344 852.444 241.111 849.676 242.644C846.946 244.14 844.776 246.235 843.168 248.928C841.597 251.621 840.811 254.726 840.811 258.242V307H816.909ZM984.073 225.138C983.624 220.612 981.697 217.096 978.294 214.59C974.89 212.084 970.27 210.831 964.435 210.831C960.47 210.831 957.122 211.392 954.392 212.514C951.661 213.599 949.566 215.114 948.107 217.059C946.686 219.004 945.975 221.211 945.975 223.68C945.901 225.737 946.331 227.532 947.266 229.066C948.238 230.6 949.566 231.928 951.25 233.05C952.933 234.134 954.878 235.088 957.085 235.911C959.292 236.697 961.648 237.37 964.154 237.931L974.478 240.4C979.491 241.522 984.091 243.018 988.281 244.888C992.47 246.759 996.099 249.059 999.166 251.79C1002.23 254.52 1004.61 257.737 1006.29 261.44C1008.01 265.143 1008.89 269.389 1008.93 274.177C1008.89 281.209 1007.1 287.306 1003.54 292.468C1000.03 297.593 994.939 301.576 988.281 304.419C981.66 307.224 973.674 308.627 964.323 308.627C955.046 308.627 946.967 307.206 940.084 304.363C933.239 301.52 927.89 297.312 924.037 291.739C920.222 286.128 918.221 279.189 918.034 270.923H941.543C941.805 274.775 942.908 277.992 944.853 280.573C946.836 283.117 949.473 285.043 952.764 286.352C956.094 287.624 959.853 288.26 964.042 288.26C968.157 288.26 971.729 287.661 974.759 286.464C977.826 285.268 980.201 283.603 981.884 281.471C983.568 279.339 984.409 276.889 984.409 274.121C984.409 271.54 983.643 269.37 982.109 267.612C980.613 265.854 978.406 264.358 975.488 263.124C972.608 261.889 969.073 260.767 964.884 259.757L952.372 256.615C942.684 254.259 935.034 250.574 929.424 245.562C923.813 240.549 921.026 233.798 921.063 225.307C921.026 218.349 922.878 212.271 926.618 207.072C930.396 201.872 935.577 197.814 942.16 194.896C948.743 191.979 956.224 190.52 964.603 190.52C973.132 190.52 980.575 191.979 986.934 194.896C993.331 197.814 998.305 201.872 1001.86 207.072C1005.41 212.271 1007.25 218.293 1007.36 225.138H984.073ZM1065.34 308.683C1056.51 308.683 1048.92 306.813 1042.56 303.072C1036.24 299.295 1031.38 294.058 1027.97 287.362C1024.61 280.667 1022.92 272.961 1022.92 264.246C1022.92 255.418 1024.62 247.675 1028.03 241.017C1031.47 234.321 1036.35 229.103 1042.67 225.363C1048.99 221.585 1056.51 219.696 1065.23 219.696C1072.75 219.696 1079.33 221.061 1084.98 223.792C1090.63 226.522 1095.1 230.357 1098.39 235.294C1101.68 240.232 1103.49 246.029 1103.83 252.688H1081.27C1080.64 248.386 1078.96 244.926 1076.22 242.308C1073.53 239.652 1070 238.324 1065.62 238.324C1061.92 238.324 1058.68 239.334 1055.91 241.354C1053.18 243.336 1051.05 246.235 1049.52 250.05C1047.98 253.866 1047.22 258.485 1047.22 263.909C1047.22 269.408 1047.97 274.083 1049.46 277.936C1051 281.789 1053.15 284.725 1055.91 286.745C1058.68 288.765 1061.92 289.775 1065.62 289.775C1068.35 289.775 1070.8 289.214 1072.97 288.092C1075.18 286.969 1076.99 285.342 1078.41 283.21C1079.87 281.041 1080.83 278.441 1081.27 275.411H1103.83C1103.46 281.995 1101.66 287.792 1098.44 292.805C1095.26 297.78 1090.87 301.67 1085.26 304.475C1079.65 307.281 1073.01 308.683 1065.34 308.683ZM1120.71 307V220.818H1143.89V235.855H1144.78C1146.35 230.506 1148.99 226.466 1152.7 223.736C1156.4 220.968 1160.66 219.584 1165.49 219.584C1166.68 219.584 1167.98 219.659 1169.36 219.808C1170.74 219.958 1171.96 220.164 1173.01 220.425V241.634C1171.88 241.298 1170.33 240.998 1168.35 240.737C1166.37 240.475 1164.55 240.344 1162.91 240.344C1159.39 240.344 1156.25 241.111 1153.48 242.644C1150.75 244.14 1148.58 246.235 1146.97 248.928C1145.4 251.621 1144.62 254.726 1144.62 258.242V307H1120.71ZM1186.94 307V220.818H1210.85V307H1186.94ZM1198.95 209.709C1195.4 209.709 1192.35 208.531 1189.81 206.174C1187.3 203.78 1186.05 200.919 1186.05 197.589C1186.05 194.298 1187.3 191.474 1189.81 189.117C1192.35 186.723 1195.4 185.526 1198.95 185.526C1202.5 185.526 1205.53 186.723 1208.04 189.117C1210.58 191.474 1211.86 194.298 1211.86 197.589C1211.86 200.919 1210.58 203.78 1208.04 206.174C1205.53 208.531 1202.5 209.709 1198.95 209.709ZM1231.57 339.318V220.818H1255.14V235.294H1256.2C1257.25 232.975 1258.77 230.618 1260.75 228.224C1262.77 225.793 1265.39 223.773 1268.6 222.165C1271.86 220.519 1275.9 219.696 1280.72 219.696C1287.01 219.696 1292.81 221.342 1298.12 224.634C1303.43 227.888 1307.67 232.807 1310.85 239.39C1314.03 245.936 1315.62 254.146 1315.62 264.021C1315.62 273.634 1314.07 281.751 1310.97 288.372C1307.9 294.955 1303.71 299.949 1298.4 303.353C1293.12 306.719 1287.21 308.403 1280.67 308.403C1276.03 308.403 1272.08 307.636 1268.83 306.102C1265.61 304.569 1262.97 302.642 1260.92 300.323C1258.86 297.967 1257.29 295.591 1256.2 293.197H1255.47V339.318H1231.57ZM1254.97 263.909C1254.97 269.034 1255.68 273.504 1257.1 277.319C1258.52 281.134 1260.58 284.108 1263.27 286.24C1265.97 288.335 1269.24 289.382 1273.09 289.382C1276.98 289.382 1280.27 288.316 1282.97 286.184C1285.66 284.014 1287.7 281.022 1289.08 277.207C1290.5 273.354 1291.22 268.921 1291.22 263.909C1291.22 258.934 1290.52 254.558 1289.14 250.78C1287.76 247.002 1285.72 244.047 1283.02 241.915C1280.33 239.783 1277.02 238.717 1273.09 238.717C1269.2 238.717 1265.91 239.745 1263.22 241.803C1260.56 243.86 1258.52 246.777 1257.1 250.555C1255.68 254.333 1254.97 258.785 1254.97 263.909ZM1378.98 220.818V238.773H1327.08V220.818H1378.98ZM1338.86 200.17H1362.76V280.517C1362.76 282.724 1363.1 284.445 1363.77 285.679C1364.45 286.876 1365.38 287.718 1366.58 288.204C1367.81 288.69 1369.23 288.933 1370.84 288.933C1371.96 288.933 1373.09 288.84 1374.21 288.653C1375.33 288.428 1376.19 288.26 1376.79 288.148L1380.55 305.934C1379.35 306.308 1377.67 306.738 1375.5 307.224C1373.33 307.748 1370.69 308.066 1367.59 308.178C1361.83 308.403 1356.78 307.636 1352.44 305.878C1348.14 304.12 1344.79 301.389 1342.39 297.686C1340 293.983 1338.82 289.307 1338.86 283.659V200.17Z" fill="white"/>
</svg>
