<svg width="1800" height="500" viewBox="0 0 1800 500" fill="none" xmlns="http://www.w3.org/2000/svg">
<rect width="1800" height="500" fill="black"/>
<path d="M470.881 250.05V238.773C477.353 238.773 481.841 237.482 484.347 234.901C486.853 232.32 488.107 228.15 488.107 222.389V209.989C488.107 203.069 489.06 197.533 490.968 193.381C492.913 189.192 495.606 186.031 499.048 183.899C502.526 181.767 506.641 180.346 511.391 179.635C516.142 178.924 521.341 178.569 526.989 178.569V196.411C522.576 196.411 519.209 196.991 516.89 198.151C514.608 199.273 513.056 201.031 512.233 203.425C511.41 205.781 510.999 208.774 510.999 212.402V228.786C510.999 231.628 510.475 234.34 509.428 236.921C508.38 239.465 506.435 241.728 503.592 243.71C500.75 245.655 496.691 247.208 491.417 248.367C486.143 249.489 479.298 250.05 470.881 250.05ZM526.989 320.578C521.341 320.578 516.142 320.223 511.391 319.512C506.641 318.801 502.526 317.38 499.048 315.248C495.606 313.116 492.913 309.974 490.968 305.822C489.06 301.632 488.107 296.078 488.107 289.158V276.702C488.107 270.941 486.853 266.771 484.347 264.19C481.841 261.609 477.353 260.318 470.881 260.318V249.04C479.298 249.04 486.143 249.62 491.417 250.78C496.691 251.902 500.75 253.454 503.592 255.437C506.435 257.382 508.38 259.645 509.428 262.226C510.475 264.769 510.999 267.481 510.999 270.362V286.745C510.999 290.336 511.41 293.328 512.233 295.722C513.056 298.079 514.608 299.837 516.89 300.996C519.209 302.119 522.576 302.68 526.989 302.68V320.578ZM470.881 260.318V238.773H491.024V260.318H470.881ZM580.366 192.091H610.328L641.973 269.295H643.319L674.964 192.091H704.926V307H681.36V232.208H680.406L650.669 306.439H634.622L604.885 231.928H603.931V307H580.366V192.091ZM750.649 308.627C745.15 308.627 740.25 307.673 735.948 305.766C731.647 303.821 728.243 300.959 725.737 297.181C723.268 293.366 722.034 288.615 722.034 282.93C722.034 278.142 722.913 274.121 724.671 270.866C726.429 267.612 728.823 264.994 731.852 263.011C734.882 261.029 738.324 259.533 742.176 258.523C746.066 257.513 750.144 256.802 754.408 256.391C759.42 255.867 763.46 255.381 766.527 254.932C769.594 254.446 771.82 253.735 773.204 252.8C774.588 251.865 775.28 250.481 775.28 248.648V248.311C775.28 244.758 774.158 242.008 771.913 240.063C769.707 238.118 766.565 237.146 762.487 237.146C758.186 237.146 754.763 238.099 752.22 240.007C749.676 241.877 747.993 244.234 747.17 247.077L725.063 245.281C726.185 240.045 728.392 235.518 731.684 231.703C734.976 227.85 739.221 224.895 744.421 222.838C749.657 220.743 755.717 219.696 762.6 219.696C767.387 219.696 771.97 220.257 776.346 221.379C780.76 222.501 784.669 224.241 788.073 226.597C791.514 228.954 794.226 231.984 796.208 235.687C798.191 239.353 799.182 243.748 799.182 248.872V307H776.514V295.049H775.841C774.457 297.742 772.605 300.117 770.286 302.175C767.967 304.195 765.181 305.784 761.926 306.944C758.672 308.066 754.913 308.627 750.649 308.627ZM757.494 292.131C761.01 292.131 764.114 291.439 766.808 290.055C769.501 288.634 771.614 286.726 773.148 284.332C774.681 281.938 775.448 279.227 775.448 276.197V267.051C774.7 267.537 773.672 267.986 772.362 268.398C771.091 268.772 769.65 269.127 768.042 269.464C766.434 269.763 764.825 270.044 763.217 270.305C761.608 270.53 760.15 270.736 758.84 270.923C756.035 271.334 753.585 271.989 751.49 272.886C749.395 273.784 747.768 275 746.609 276.533C745.449 278.03 744.869 279.9 744.869 282.144C744.869 285.398 746.048 287.886 748.404 289.607C750.798 291.29 753.828 292.131 757.494 292.131ZM891.012 245.393L869.129 246.74C868.755 244.87 867.951 243.187 866.717 241.69C865.482 240.157 863.855 238.941 861.835 238.043C859.853 237.108 857.478 236.641 854.71 236.641C851.007 236.641 847.883 237.426 845.34 238.997C842.796 240.531 841.524 242.588 841.524 245.169C841.524 247.226 842.347 248.966 843.993 250.387C845.639 251.808 848.463 252.949 852.465 253.81L868.063 256.952C876.442 258.672 882.689 261.44 886.803 265.256C890.918 269.071 892.975 274.083 892.975 280.293C892.975 285.941 891.311 290.897 887.982 295.161C884.69 299.425 880.164 302.754 874.404 305.148C868.681 307.505 862.079 308.683 854.598 308.683C843.189 308.683 834.099 306.308 827.329 301.558C820.596 296.77 816.65 290.261 815.49 282.032L839 280.798C839.71 284.276 841.431 286.932 844.161 288.765C846.892 290.56 850.389 291.458 854.654 291.458C858.843 291.458 862.21 290.654 864.753 289.045C867.334 287.4 868.643 285.286 868.681 282.705C868.643 280.536 867.727 278.759 865.931 277.375C864.136 275.954 861.368 274.869 857.627 274.121L842.703 271.147C834.286 269.464 828.021 266.546 823.906 262.394C819.829 258.242 817.791 252.949 817.791 246.516C817.791 240.98 819.287 236.21 822.279 232.208C825.309 228.206 829.555 225.12 835.016 222.95C840.514 220.781 846.948 219.696 854.317 219.696C865.202 219.696 873.768 221.996 880.014 226.597C886.299 231.198 889.964 237.464 891.012 245.393ZM948.882 308.683C940.017 308.683 932.386 306.888 925.99 303.297C919.631 299.669 914.731 294.544 911.29 287.923C907.848 281.265 906.128 273.391 906.128 264.302C906.128 255.437 907.848 247.656 911.29 240.961C914.731 234.265 919.575 229.047 925.822 225.307C932.106 221.566 939.474 219.696 947.928 219.696C953.614 219.696 958.907 220.612 963.807 222.445C968.744 224.241 973.046 226.953 976.711 230.581C980.415 234.209 983.295 238.773 985.352 244.271C987.409 249.732 988.438 256.129 988.438 263.46V270.025H915.666V255.212H965.939C965.939 251.771 965.191 248.723 963.694 246.067C962.198 243.411 960.122 241.335 957.466 239.839C954.848 238.305 951.799 237.538 948.321 237.538C944.692 237.538 941.476 238.38 938.67 240.063C935.902 241.709 933.733 243.935 932.162 246.74C930.591 249.508 929.786 252.594 929.749 255.998V270.081C929.749 274.345 930.535 278.03 932.106 281.134C933.714 284.239 935.977 286.633 938.895 288.316C941.812 289.999 945.272 290.841 949.275 290.841C951.93 290.841 954.362 290.467 956.569 289.719C958.776 288.971 960.665 287.848 962.236 286.352C963.807 284.856 965.004 283.023 965.826 280.854L987.933 282.312C986.811 287.624 984.51 292.262 981.032 296.227C977.59 300.155 973.139 303.222 967.678 305.429C962.254 307.598 955.989 308.683 948.882 308.683ZM1090.22 192.091H1114.24V272.213C1114.24 279.619 1112.57 286.053 1109.24 291.514C1105.95 296.975 1101.37 301.183 1095.5 304.138C1089.62 307.094 1082.8 308.571 1075.02 308.571C1068.1 308.571 1061.81 307.355 1056.16 304.924C1050.55 302.455 1046.1 298.715 1042.81 293.702C1039.52 288.653 1037.89 282.312 1037.93 274.682H1062.11C1062.19 277.712 1062.8 280.311 1063.96 282.481C1065.16 284.613 1066.79 286.259 1068.84 287.418C1070.94 288.54 1073.41 289.102 1076.25 289.102C1079.24 289.102 1081.77 288.466 1083.83 287.194C1085.92 285.885 1087.51 283.977 1088.59 281.471C1089.68 278.965 1090.22 275.879 1090.22 272.213V192.091ZM1198.24 225.138C1197.79 220.612 1195.86 217.096 1192.46 214.59C1189.06 212.084 1184.44 210.831 1178.6 210.831C1174.64 210.831 1171.29 211.392 1168.56 212.514C1165.83 213.599 1163.73 215.114 1162.27 217.059C1160.85 219.004 1160.14 221.211 1160.14 223.68C1160.07 225.737 1160.5 227.532 1161.43 229.066C1162.4 230.6 1163.73 231.928 1165.42 233.05C1167.1 234.134 1169.04 235.088 1171.25 235.911C1173.46 236.697 1175.81 237.37 1178.32 237.931L1188.64 240.4C1193.66 241.522 1198.26 243.018 1202.45 244.888C1206.64 246.759 1210.26 249.059 1213.33 251.79C1216.4 254.52 1218.77 257.737 1220.46 261.44C1222.18 265.143 1223.06 269.389 1223.09 274.177C1223.06 281.209 1221.26 287.306 1217.71 292.468C1214.19 297.593 1209.1 301.576 1202.45 304.419C1195.83 307.224 1187.84 308.627 1178.49 308.627C1169.21 308.627 1161.13 307.206 1154.25 304.363C1147.4 301.52 1142.06 297.312 1138.2 291.739C1134.39 286.128 1132.39 279.189 1132.2 270.923H1155.71C1155.97 274.775 1157.07 277.992 1159.02 280.573C1161 283.117 1163.64 285.043 1166.93 286.352C1170.26 287.624 1174.02 288.26 1178.21 288.26C1182.32 288.26 1185.89 287.661 1188.92 286.464C1191.99 285.268 1194.37 283.603 1196.05 281.471C1197.73 279.339 1198.58 276.889 1198.58 274.121C1198.58 271.54 1197.81 269.37 1196.27 267.612C1194.78 265.854 1192.57 264.358 1189.65 263.124C1186.77 261.889 1183.24 260.767 1179.05 259.757L1166.54 256.615C1156.85 254.259 1149.2 250.574 1143.59 245.562C1137.98 240.549 1135.19 233.798 1135.23 225.307C1135.19 218.349 1137.04 212.271 1140.78 207.072C1144.56 201.872 1149.74 197.814 1156.33 194.896C1162.91 191.979 1170.39 190.52 1178.77 190.52C1187.3 190.52 1194.74 191.979 1201.1 194.896C1207.5 197.814 1212.47 201.872 1216.02 207.072C1219.58 212.271 1221.41 218.293 1221.52 225.138H1198.24ZM1328.93 249.04V260.318C1322.5 260.318 1318.01 261.609 1315.47 264.19C1312.96 266.771 1311.71 270.941 1311.71 276.702V289.158C1311.71 296.078 1310.73 301.632 1308.79 305.822C1306.88 309.974 1304.19 313.116 1300.71 315.248C1297.27 317.38 1293.17 318.801 1288.42 319.512C1283.71 320.223 1278.51 320.578 1272.82 320.578V302.68C1277.24 302.68 1280.59 302.119 1282.87 300.996C1285.19 299.837 1286.76 298.079 1287.58 295.722C1288.4 293.328 1288.81 290.336 1288.81 286.745V270.362C1288.81 267.481 1289.34 264.769 1290.39 262.226C1291.43 259.645 1293.38 257.382 1296.22 255.437C1299.06 253.454 1303.12 251.902 1308.4 250.78C1313.67 249.62 1320.52 249.04 1328.93 249.04ZM1272.82 178.569C1278.51 178.569 1283.71 178.924 1288.42 179.635C1293.17 180.346 1297.27 181.767 1300.71 183.899C1304.19 186.031 1306.88 189.192 1308.79 193.381C1310.73 197.533 1311.71 203.069 1311.71 209.989V222.389C1311.71 228.15 1312.96 232.32 1315.47 234.901C1318.01 237.482 1322.5 238.773 1328.93 238.773V250.05C1320.52 250.05 1313.67 249.489 1308.4 248.367C1303.12 247.208 1299.06 245.655 1296.22 243.71C1293.38 241.728 1291.43 239.465 1290.39 236.921C1289.34 234.34 1288.81 231.628 1288.81 228.786V212.402C1288.81 208.774 1288.4 205.781 1287.58 203.425C1286.76 201.031 1285.19 199.273 1282.87 198.151C1280.59 196.991 1277.24 196.411 1272.82 196.411V178.569ZM1328.93 238.773V260.318H1308.79V238.773H1328.93Z" fill="white"/>
</svg>
