<svg width="1800" height="500" viewBox="0 0 1800 500" fill="none" xmlns="http://www.w3.org/2000/svg">
<rect width="1800" height="500" fill="black"/>
<path d="M563.987 307V192.091H609.322C618.038 192.091 625.463 193.755 631.597 197.085C637.732 200.376 642.407 204.958 645.624 210.831C648.879 216.666 650.506 223.399 650.506 231.03C650.506 238.661 648.86 245.393 645.568 251.229C642.277 257.064 637.507 261.609 631.261 264.863C625.051 268.117 617.533 269.744 608.705 269.744H579.81V250.275H604.778C609.453 250.275 613.306 249.471 616.336 247.862C619.403 246.216 621.685 243.953 623.181 241.073C624.715 238.156 625.482 234.808 625.482 231.03C625.482 227.214 624.715 223.885 623.181 221.043C621.685 218.162 619.403 215.937 616.336 214.366C613.269 212.757 609.379 211.953 604.665 211.953H588.282V307H563.987ZM689.678 308.627C684.179 308.627 679.279 307.673 674.978 305.766C670.676 303.821 667.272 300.959 664.766 297.181C662.297 293.366 661.063 288.615 661.063 282.93C661.063 278.142 661.942 274.121 663.7 270.866C665.458 267.612 667.852 264.994 670.882 263.011C673.912 261.029 677.353 259.533 681.206 258.523C685.096 257.513 689.173 256.802 693.437 256.391C698.45 255.867 702.489 255.381 705.557 254.932C708.624 254.446 710.849 253.735 712.233 252.8C713.617 251.865 714.309 250.481 714.309 248.648V248.311C714.309 244.758 713.187 242.008 710.943 240.063C708.736 238.118 705.594 237.146 701.517 237.146C697.215 237.146 693.793 238.099 691.249 240.007C688.705 241.877 687.022 244.234 686.199 247.077L664.093 245.281C665.215 240.045 667.422 235.518 670.714 231.703C674.005 227.85 678.251 224.895 683.45 222.838C688.687 220.743 694.746 219.696 701.629 219.696C706.417 219.696 710.999 220.257 715.375 221.379C719.789 222.501 723.698 224.241 727.102 226.597C730.543 228.954 733.255 231.984 735.238 235.687C737.22 239.353 738.211 243.748 738.211 248.872V307H715.544V295.049H714.87C713.486 297.742 711.635 300.117 709.316 302.175C706.997 304.195 704.21 305.784 700.956 306.944C697.701 308.066 693.942 308.627 689.678 308.627ZM696.523 292.131C700.039 292.131 703.144 291.439 705.837 290.055C708.53 288.634 710.644 286.726 712.177 284.332C713.711 281.938 714.478 279.227 714.478 276.197V267.051C713.73 267.537 712.701 267.986 711.392 268.398C710.12 268.772 708.68 269.127 707.071 269.464C705.463 269.763 703.855 270.044 702.246 270.305C700.638 270.53 699.179 270.736 697.87 270.923C695.064 271.334 692.614 271.989 690.52 272.886C688.425 273.784 686.798 275 685.638 276.533C684.479 278.03 683.899 279.9 683.899 282.144C683.899 285.398 685.077 287.886 687.434 289.607C689.828 291.29 692.857 292.131 696.523 292.131ZM758.335 339.318V220.818H781.9V235.294H782.966C784.014 232.975 785.529 230.618 787.511 228.224C789.531 225.793 792.149 223.773 795.366 222.165C798.621 220.519 802.66 219.696 807.486 219.696C813.77 219.696 819.568 221.342 824.879 224.634C830.191 227.888 834.436 232.807 837.616 239.39C840.795 245.936 842.385 254.146 842.385 264.021C842.385 273.634 840.832 281.751 837.728 288.372C834.661 294.955 830.471 299.949 825.16 303.353C819.886 306.719 813.975 308.403 807.43 308.403C802.791 308.403 798.845 307.636 795.591 306.102C792.374 304.569 789.737 302.642 787.68 300.323C785.622 297.967 784.051 295.591 782.966 293.197H782.237V339.318H758.335ZM781.732 263.909C781.732 269.034 782.443 273.504 783.864 277.319C785.286 281.134 787.343 284.108 790.036 286.24C792.729 288.335 796.002 289.382 799.855 289.382C803.745 289.382 807.037 288.316 809.73 286.184C812.423 284.014 814.462 281.022 815.846 277.207C817.267 273.354 817.978 268.921 817.978 263.909C817.978 258.934 817.286 254.558 815.902 250.78C814.518 247.002 812.479 244.047 809.786 241.915C807.093 239.783 803.783 238.717 799.855 238.717C795.965 238.717 792.673 239.745 789.98 241.803C787.324 243.86 785.286 246.777 783.864 250.555C782.443 254.333 781.732 258.785 781.732 263.909ZM899.175 308.683C890.31 308.683 882.679 306.888 876.283 303.297C869.924 299.669 865.024 294.544 861.583 287.923C858.141 281.265 856.421 273.391 856.421 264.302C856.421 255.437 858.141 247.656 861.583 240.961C865.024 234.265 869.868 229.047 876.115 225.307C882.399 221.566 889.768 219.696 898.221 219.696C903.907 219.696 909.2 220.612 914.1 222.445C919.037 224.241 923.339 226.953 927.005 230.581C930.708 234.209 933.588 238.773 935.645 244.271C937.702 249.732 938.731 256.129 938.731 263.46V270.025H865.959V255.212H916.232C916.232 251.771 915.484 248.723 913.988 246.067C912.491 243.411 910.415 241.335 907.76 239.839C905.141 238.305 902.093 237.538 898.614 237.538C894.986 237.538 891.769 238.38 888.963 240.063C886.195 241.709 884.026 243.935 882.455 246.74C880.884 249.508 880.08 252.594 880.042 255.998V270.081C880.042 274.345 880.828 278.03 882.399 281.134C884.007 284.239 886.27 286.633 889.188 288.316C892.105 289.999 895.565 290.841 899.568 290.841C902.224 290.841 904.655 290.467 906.862 289.719C909.069 288.971 910.958 287.848 912.529 286.352C914.1 284.856 915.297 283.023 916.12 280.854L938.226 282.312C937.104 287.624 934.804 292.262 931.325 296.227C927.884 300.155 923.432 303.222 917.971 305.429C912.547 307.598 906.282 308.683 899.175 308.683ZM955.909 307V220.818H979.082V235.855H979.979C981.55 230.506 984.188 226.466 987.891 223.736C991.594 220.968 995.858 219.584 1000.68 219.584C1001.88 219.584 1003.17 219.659 1004.55 219.808C1005.94 219.958 1007.15 220.164 1008.2 220.425V241.634C1007.08 241.298 1005.53 240.998 1003.54 240.737C1001.56 240.475 999.748 240.344 998.102 240.344C994.586 240.344 991.444 241.111 988.676 242.644C985.946 244.14 983.776 246.235 982.168 248.928C980.597 251.621 979.811 254.726 979.811 258.242V307H955.909ZM1106.75 192.091H1130.76V272.213C1130.76 279.619 1129.09 286.053 1125.77 291.514C1122.47 296.975 1117.89 301.183 1112.02 304.138C1106.15 307.094 1099.32 308.571 1091.54 308.571C1084.62 308.571 1078.34 307.355 1072.69 304.924C1067.08 302.455 1062.63 298.715 1059.33 293.702C1056.04 288.653 1054.42 282.312 1054.45 274.682H1078.64C1078.71 277.712 1079.33 280.311 1080.49 282.481C1081.68 284.613 1083.31 286.259 1085.37 287.418C1087.46 288.54 1089.93 289.102 1092.77 289.102C1095.77 289.102 1098.29 288.466 1100.35 287.194C1102.44 285.885 1104.03 283.977 1105.12 281.471C1106.2 278.965 1106.75 275.879 1106.75 272.213V192.091ZM1214.76 225.138C1214.31 220.612 1212.39 217.096 1208.98 214.59C1205.58 212.084 1200.96 210.831 1195.12 210.831C1191.16 210.831 1187.81 211.392 1185.08 212.514C1182.35 213.599 1180.26 215.114 1178.8 217.059C1177.38 219.004 1176.66 221.211 1176.66 223.68C1176.59 225.737 1177.02 227.532 1177.96 229.066C1178.93 230.6 1180.26 231.928 1181.94 233.05C1183.62 234.134 1185.57 235.088 1187.77 235.911C1189.98 236.697 1192.34 237.37 1194.84 237.931L1205.17 240.4C1210.18 241.522 1214.78 243.018 1218.97 244.888C1223.16 246.759 1226.79 249.059 1229.86 251.79C1232.92 254.52 1235.3 257.737 1236.98 261.44C1238.7 265.143 1239.58 269.389 1239.62 274.177C1239.58 281.209 1237.79 287.306 1234.23 292.468C1230.72 297.593 1225.63 301.576 1218.97 304.419C1212.35 307.224 1204.36 308.627 1195.01 308.627C1185.74 308.627 1177.66 307.206 1170.77 304.363C1163.93 301.52 1158.58 297.312 1154.73 291.739C1150.91 286.128 1148.91 279.189 1148.72 270.923H1172.23C1172.49 274.775 1173.6 277.992 1175.54 280.573C1177.53 283.117 1180.16 285.043 1183.45 286.352C1186.78 287.624 1190.54 288.26 1194.73 288.26C1198.85 288.26 1202.42 287.661 1205.45 286.464C1208.52 285.268 1210.89 283.603 1212.57 281.471C1214.26 279.339 1215.1 276.889 1215.1 274.121C1215.1 271.54 1214.33 269.37 1212.8 267.612C1211.3 265.854 1209.1 264.358 1206.18 263.124C1203.3 261.889 1199.76 260.767 1195.57 259.757L1183.06 256.615C1173.37 254.259 1165.72 250.574 1160.11 245.562C1154.5 240.549 1151.72 233.798 1151.75 225.307C1151.72 218.349 1153.57 212.271 1157.31 207.072C1161.09 201.872 1166.27 197.814 1172.85 194.896C1179.43 191.979 1186.91 190.52 1195.29 190.52C1203.82 190.52 1211.26 191.979 1217.62 194.896C1224.02 197.814 1228.99 201.872 1232.55 207.072C1236.1 212.271 1237.93 218.293 1238.05 225.138H1214.76Z" fill="white"/>
</svg>
