<svg width="1800" height="500" viewBox="0 0 1800 500" fill="none" xmlns="http://www.w3.org/2000/svg">
<rect width="1800" height="500" fill="black"/>
<path d="M454.881 250.05V238.773C461.353 238.773 465.841 237.482 468.347 234.901C470.853 232.32 472.107 228.15 472.107 222.389V209.989C472.107 203.069 473.06 197.533 474.968 193.381C476.913 189.192 479.606 186.031 483.048 183.899C486.526 181.767 490.641 180.346 495.391 179.635C500.142 178.924 505.341 178.569 510.989 178.569V196.411C506.576 196.411 503.209 196.991 500.89 198.151C498.608 199.273 497.056 201.031 496.233 203.425C495.41 205.781 494.999 208.774 494.999 212.402V228.786C494.999 231.628 494.475 234.34 493.428 236.921C492.38 239.465 490.435 241.728 487.592 243.71C484.75 245.655 480.691 247.208 475.417 248.367C470.143 249.489 463.298 250.05 454.881 250.05ZM510.989 320.578C505.341 320.578 500.142 320.223 495.391 319.512C490.641 318.801 486.526 317.38 483.048 315.248C479.606 313.116 476.913 309.974 474.968 305.822C473.06 301.632 472.107 296.078 472.107 289.158V276.702C472.107 270.941 470.853 266.771 468.347 264.19C465.841 261.609 461.353 260.318 454.881 260.318V249.04C463.298 249.04 470.143 249.62 475.417 250.78C480.691 251.902 484.75 253.454 487.592 255.437C490.435 257.382 492.38 259.645 493.428 262.226C494.475 264.769 494.999 267.481 494.999 270.362V286.745C494.999 290.336 495.41 293.328 496.233 295.722C497.056 298.079 498.608 299.837 500.89 300.996C503.209 302.119 506.576 302.68 510.989 302.68V320.578ZM454.881 260.318V238.773H475.024V260.318H454.881ZM564.366 307V192.091H609.701C618.417 192.091 625.842 193.755 631.976 197.085C638.111 200.376 642.786 204.958 646.003 210.831C649.257 216.666 650.884 223.399 650.884 231.03C650.884 238.661 649.239 245.393 645.947 251.229C642.655 257.064 637.886 261.609 631.639 264.863C625.43 268.117 617.912 269.744 609.084 269.744H580.188V250.275H605.156C609.832 250.275 613.685 249.471 616.715 247.862C619.782 246.216 622.064 243.953 623.56 241.073C625.093 238.156 625.86 234.808 625.86 231.03C625.86 227.214 625.093 223.885 623.56 221.043C622.064 218.162 619.782 215.937 616.715 214.366C613.647 212.757 609.757 211.953 605.044 211.953H588.661V307H564.366ZM690.057 308.627C684.558 308.627 679.658 307.673 675.356 305.766C671.055 303.821 667.651 300.959 665.145 297.181C662.676 293.366 661.442 288.615 661.442 282.93C661.442 278.142 662.321 274.121 664.079 270.866C665.837 267.612 668.231 264.994 671.261 263.011C674.29 261.029 677.732 259.533 681.584 258.523C685.475 257.513 689.552 256.802 693.816 256.391C698.828 255.867 702.868 255.381 705.935 254.932C709.003 254.446 711.228 253.735 712.612 252.8C713.996 251.865 714.688 250.481 714.688 248.648V248.311C714.688 244.758 713.566 242.008 711.322 240.063C709.115 238.118 705.973 237.146 701.896 237.146C697.594 237.146 694.171 238.099 691.628 240.007C689.084 241.877 687.401 244.234 686.578 247.077L664.472 245.281C665.594 240.045 667.801 235.518 671.092 231.703C674.384 227.85 678.629 224.895 683.829 222.838C689.066 220.743 695.125 219.696 702.008 219.696C706.796 219.696 711.378 220.257 715.754 221.379C720.168 222.501 724.077 224.241 727.481 226.597C730.922 228.954 733.634 231.984 735.616 235.687C737.599 239.353 738.59 243.748 738.59 248.872V307H715.923V295.049H715.249C713.865 297.742 712.014 300.117 709.695 302.175C707.375 304.195 704.589 305.784 701.334 306.944C698.08 308.066 694.321 308.627 690.057 308.627ZM696.902 292.131C700.418 292.131 703.523 291.439 706.216 290.055C708.909 288.634 711.022 286.726 712.556 284.332C714.09 281.938 714.856 279.227 714.856 276.197V267.051C714.108 267.537 713.08 267.986 711.771 268.398C710.499 268.772 709.059 269.127 707.45 269.464C705.842 269.763 704.233 270.044 702.625 270.305C701.017 270.53 699.558 270.736 698.249 270.923C695.443 271.334 692.993 271.989 690.898 272.886C688.804 273.784 687.177 275 686.017 276.533C684.857 278.03 684.278 279.9 684.278 282.144C684.278 285.398 685.456 287.886 687.812 289.607C690.206 291.29 693.236 292.131 696.902 292.131ZM758.714 339.318V220.818H782.279V235.294H783.345C784.393 232.975 785.907 230.618 787.89 228.224C789.91 225.793 792.528 223.773 795.745 222.165C798.999 220.519 803.039 219.696 807.864 219.696C814.148 219.696 819.946 221.342 825.258 224.634C830.569 227.888 834.815 232.807 837.994 239.39C841.174 245.936 842.764 254.146 842.764 264.021C842.764 273.634 841.211 281.751 838.107 288.372C835.039 294.955 830.85 299.949 825.538 303.353C820.264 306.719 814.354 308.403 807.808 308.403C803.17 308.403 799.224 307.636 795.97 306.102C792.753 304.569 790.116 302.642 788.058 300.323C786.001 297.967 784.43 295.591 783.345 293.197H782.616V339.318H758.714ZM782.111 263.909C782.111 269.034 782.822 273.504 784.243 277.319C785.664 281.134 787.722 284.108 790.415 286.24C793.108 288.335 796.381 289.382 800.234 289.382C804.124 289.382 807.416 288.316 810.109 286.184C812.802 284.014 814.84 281.022 816.224 277.207C817.646 273.354 818.357 268.921 818.357 263.909C818.357 258.934 817.665 254.558 816.281 250.78C814.897 247.002 812.858 244.047 810.165 241.915C807.472 239.783 804.161 238.717 800.234 238.717C796.344 238.717 793.052 239.745 790.359 241.803C787.703 243.86 785.664 246.777 784.243 250.555C782.822 254.333 782.111 258.785 782.111 263.909ZM899.554 308.683C890.689 308.683 883.058 306.888 876.662 303.297C870.303 299.669 865.403 294.544 861.961 287.923C858.52 281.265 856.799 273.391 856.799 264.302C856.799 255.437 858.52 247.656 861.961 240.961C865.403 234.265 870.247 229.047 876.493 225.307C882.777 221.566 890.146 219.696 898.6 219.696C904.286 219.696 909.578 220.612 914.478 222.445C919.416 224.241 923.718 226.953 927.383 230.581C931.086 234.209 933.967 238.773 936.024 244.271C938.081 249.732 939.11 256.129 939.11 263.46V270.025H866.338V255.212H916.611C916.611 251.771 915.862 248.723 914.366 246.067C912.87 243.411 910.794 241.335 908.138 239.839C905.52 238.305 902.471 237.538 898.993 237.538C895.364 237.538 892.148 238.38 889.342 240.063C886.574 241.709 884.405 243.935 882.834 246.74C881.263 249.508 880.458 252.594 880.421 255.998V270.081C880.421 274.345 881.206 278.03 882.777 281.134C884.386 284.239 886.649 286.633 889.567 288.316C892.484 289.999 895.944 290.841 899.947 290.841C902.602 290.841 905.034 290.467 907.241 289.719C909.447 288.971 911.336 287.848 912.907 286.352C914.478 284.856 915.675 283.023 916.498 280.854L938.605 282.312C937.483 287.624 935.182 292.262 931.704 296.227C928.262 300.155 923.811 303.222 918.35 305.429C912.926 307.598 906.661 308.683 899.554 308.683ZM956.288 307V220.818H979.46V235.855H980.358C981.929 230.506 984.566 226.466 988.269 223.736C991.973 220.968 996.237 219.584 1001.06 219.584C1002.26 219.584 1003.55 219.659 1004.93 219.808C1006.32 219.958 1007.53 220.164 1008.58 220.425V241.634C1007.46 241.298 1005.91 240.998 1003.92 240.737C1001.94 240.475 1000.13 240.344 998.481 240.344C994.965 240.344 991.823 241.111 989.055 242.644C986.324 244.14 984.155 246.235 982.546 248.928C980.975 251.621 980.19 254.726 980.19 258.242V307H956.288ZM1107.12 192.091H1131.14V272.213C1131.14 279.619 1129.47 286.053 1126.14 291.514C1122.85 296.975 1118.27 301.183 1112.4 304.138C1106.53 307.094 1099.7 308.571 1091.92 308.571C1085 308.571 1078.71 307.355 1073.07 304.924C1067.46 302.455 1063 298.715 1059.71 293.702C1056.42 288.653 1054.79 282.312 1054.83 274.682H1079.01C1079.09 277.712 1079.71 280.311 1080.87 282.481C1082.06 284.613 1083.69 286.259 1085.75 287.418C1087.84 288.54 1090.31 289.102 1093.15 289.102C1096.15 289.102 1098.67 288.466 1100.73 287.194C1102.82 285.885 1104.41 283.977 1105.5 281.471C1106.58 278.965 1107.12 275.879 1107.12 272.213V192.091ZM1215.14 225.138C1214.69 220.612 1212.77 217.096 1209.36 214.59C1205.96 212.084 1201.34 210.831 1195.5 210.831C1191.54 210.831 1188.19 211.392 1185.46 212.514C1182.73 213.599 1180.63 215.114 1179.18 217.059C1177.75 219.004 1177.04 221.211 1177.04 223.68C1176.97 225.737 1177.4 227.532 1178.33 229.066C1179.31 230.6 1180.63 231.928 1182.32 233.05C1184 234.134 1185.95 235.088 1188.15 235.911C1190.36 236.697 1192.72 237.37 1195.22 237.931L1205.55 240.4C1210.56 241.522 1215.16 243.018 1219.35 244.888C1223.54 246.759 1227.17 249.059 1230.23 251.79C1233.3 254.52 1235.68 257.737 1237.36 261.44C1239.08 265.143 1239.96 269.389 1240 274.177C1239.96 281.209 1238.16 287.306 1234.61 292.468C1231.09 297.593 1226.01 301.576 1219.35 304.419C1212.73 307.224 1204.74 308.627 1195.39 308.627C1186.11 308.627 1178.03 307.206 1171.15 304.363C1164.31 301.52 1158.96 297.312 1155.11 291.739C1151.29 286.128 1149.29 279.189 1149.1 270.923H1172.61C1172.87 274.775 1173.98 277.992 1175.92 280.573C1177.9 283.117 1180.54 285.043 1183.83 286.352C1187.16 287.624 1190.92 288.26 1195.11 288.26C1199.22 288.26 1202.8 287.661 1205.83 286.464C1208.89 285.268 1211.27 283.603 1212.95 281.471C1214.64 279.339 1215.48 276.889 1215.48 274.121C1215.48 271.54 1214.71 269.37 1213.18 267.612C1211.68 265.854 1209.47 264.358 1206.56 263.124C1203.68 261.889 1200.14 260.767 1195.95 259.757L1183.44 256.615C1173.75 254.259 1166.1 250.574 1160.49 245.562C1154.88 240.549 1152.09 233.798 1152.13 225.307C1152.09 218.349 1153.95 212.271 1157.69 207.072C1161.46 201.872 1166.64 197.814 1173.23 194.896C1179.81 191.979 1187.29 190.52 1195.67 190.52C1204.2 190.52 1211.64 191.979 1218 194.896C1224.4 197.814 1229.37 201.872 1232.93 207.072C1236.48 212.271 1238.31 218.293 1238.43 225.138H1215.14ZM1345.83 249.04V260.318C1339.4 260.318 1334.91 261.609 1332.37 264.19C1329.86 266.771 1328.61 270.941 1328.61 276.702V289.158C1328.61 296.078 1327.64 301.632 1325.69 305.822C1323.78 309.974 1321.09 313.116 1317.61 315.248C1314.17 317.38 1310.07 318.801 1305.32 319.512C1300.61 320.223 1295.41 320.578 1289.73 320.578V302.68C1294.14 302.68 1297.49 302.119 1299.77 300.996C1302.09 299.837 1303.66 298.079 1304.48 295.722C1305.31 293.328 1305.72 290.336 1305.72 286.745V270.362C1305.72 267.481 1306.24 264.769 1307.29 262.226C1308.34 259.645 1310.28 257.382 1313.12 255.437C1315.97 253.454 1320.02 251.902 1325.3 250.78C1330.57 249.62 1337.42 249.04 1345.83 249.04ZM1289.73 178.569C1295.41 178.569 1300.61 178.924 1305.32 179.635C1310.07 180.346 1314.17 181.767 1317.61 183.899C1321.09 186.031 1323.78 189.192 1325.69 193.381C1327.64 197.533 1328.61 203.069 1328.61 209.989V222.389C1328.61 228.15 1329.86 232.32 1332.37 234.901C1334.91 237.482 1339.4 238.773 1345.83 238.773V250.05C1337.42 250.05 1330.57 249.489 1325.3 248.367C1320.02 247.208 1315.97 245.655 1313.12 243.71C1310.28 241.728 1308.34 239.465 1307.29 236.921C1306.24 234.34 1305.72 231.628 1305.72 228.786V212.402C1305.72 208.774 1305.31 205.781 1304.48 203.425C1303.66 201.031 1302.09 199.273 1299.77 198.151C1297.49 196.991 1294.14 196.411 1289.73 196.411V178.569ZM1345.83 238.773V260.318H1325.69V238.773H1345.83Z" fill="white"/>
</svg>
